<svg width="269" height="61" fill="none" xmlns="http://www.w3.org/2000/svg"><path fill="transparent" d="M0 0h269v61H0z"/><path fill-rule="evenodd" clip-rule="evenodd" d="M38.986 19.709l-7.282 13.35v7.96h-1.357v-7.96l-7.27-13.35h1.514l6.434 11.94 6.434-11.94h1.527zm49.707 0h11.967v1.2H90.05v8.417h9.566v1.188H90.05v9.305h10.609v1.2H88.693v-21.31zM175.396.26h-34.589c-7.185 0-13.009 5.825-13.009 13.01v33.984c0 7.185 5.824 13.008 13.009 13.008h34.589c7.184 0 13.008-5.823 13.008-13.008V13.27c0-7.185-5.824-13.01-13.008-13.01zm0 .936c6.657 0 12.074 5.416 12.074 12.074v33.984c0 6.657-5.417 12.073-12.074 12.073h-34.589c-6.658 0-12.074-5.416-12.074-12.073V13.27c0-6.658 5.416-12.074 12.074-12.074h34.589z" fill="#1B1A19"/><path fill-rule="evenodd" clip-rule="evenodd" d="M151.362 19.71h1.997l3.08 8.156c.548 1.513 1.096 3.04 1.71 4.906h.026c.6-1.84 1.135-3.34 1.709-4.906l3.08-8.157h1.996v21.31h-1.252V21.106h-.026a229.994 229.994 0 01-2.127 5.73l-2.819 7.568h-1.149l-2.818-7.569c-.653-1.735-1.279-3.366-2.127-5.729h-.026V41.02h-1.254V19.71zM31.151.26h-.604C13.978.26.546 13.693.546 30.261c0 16.57 13.432 30.001 30.001 30.001h.604c16.57 0 30.002-13.431 30.002-30C61.153 13.691 47.72.26 31.15.26zm0 .936c16.028 0 29.067 13.039 29.067 29.066 0 16.026-13.04 29.065-29.067 29.065h-.604c-16.027 0-29.066-13.039-29.066-29.066 0-16.026 13.039-29.065 29.066-29.065h.604zm194.757 32.437l-2.049-6.303a1198.94 1198.94 0 01-2.036-6.447h-.038c-.731 2.337-1.357 4.32-2.036 6.447l-2.049 6.303h8.208zm.404 1.228h-9.016l-1.997 6.159h-1.436l6.982-21.31h1.918l6.982 21.31h-1.436l-1.997-6.16zM111.72.26H77.132c-7.185 0-13.01 5.825-13.01 13.01v33.983c0 7.186 5.825 13.01 13.01 13.01h34.588c7.185 0 13.01-5.824 13.01-13.01V13.27c0-7.185-5.825-13.01-13.01-13.01zm0 .936c6.658 0 12.074 5.416 12.074 12.074v33.983c0 6.658-5.416 12.074-12.074 12.074H77.132c-6.658 0-12.074-5.416-12.074-12.073V13.27c0-6.658 5.416-12.074 12.074-12.074h34.588z" fill="#1B1A19"/><path fill-rule="evenodd" clip-rule="evenodd" d="M239.096.26h-34.588c-7.185 0-13.01 5.825-13.01 13.01v33.984c0 7.185 5.825 13.008 13.01 13.008h34.588c7.185 0 13.009-5.823 13.009-13.008V13.27c0-7.185-5.824-13.01-13.009-13.01zm0 .936c6.657 0 12.074 5.416 12.074 12.074v33.984c0 6.657-5.417 12.073-12.074 12.073h-34.588c-6.658 0-12.074-5.416-12.074-12.073V13.27c0-6.658 5.416-12.074 12.074-12.074h34.588zm22.922 14.879h1.329c.73 0 1.055-.365 1.055-1.134 0-.743-.351-.99-1.029-.99h-1.355v2.124zm2.123.586l1.213 2.515h-.925l-1.121-2.41h-1.29v2.41h-.821v-5.942h2.216c1.25 0 1.862.56 1.862 1.707 0 .912-.377 1.498-1.134 1.72zm3.637-.442c0-2.646-2.098-4.757-4.73-4.757a4.726 4.726 0 00-4.758 4.757 4.722 4.722 0 004.758 4.742c2.632 0 4.73-2.11 4.73-4.742zm.768 0c0 3.023-2.476 5.51-5.498 5.51-3.049 0-5.526-2.487-5.526-5.51 0-3.037 2.477-5.539 5.526-5.539 3.022 0 5.498 2.502 5.498 5.539z" fill="#1B1A19"/></svg>