<svg width="152" height="133" fill="none" xmlns="http://www.w3.org/2000/svg"><path fill="transparent" d="M0 0h152v133H0z"/><path fill-rule="evenodd" clip-rule="evenodd" d="M41.733 21.245l-7.826 14.349v8.556h-1.46v-8.556l-7.812-14.35h1.627l6.915 12.835 6.916-12.834h1.64zm53.457 0h12.862v1.29H96.648v9.047h10.282v1.276H96.648V42.86h11.404v1.29H95.189V21.246zM51.572 68.06H14.395C6.673 68.06.413 74.32.413 82.041v36.526c0 7.723 6.26 13.983 13.982 13.983h37.177c7.722 0 13.983-6.26 13.983-13.983V82.042c0-7.722-6.26-13.983-13.983-13.983zm0 1.005c7.155 0 12.977 5.822 12.977 12.977v36.526c0 7.156-5.822 12.978-12.977 12.978H14.395c-7.155 0-12.977-5.822-12.977-12.978V82.042c0-7.156 5.822-12.977 12.977-12.977h37.177z" fill="#0A0B09"/><path fill-rule="evenodd" clip-rule="evenodd" d="M25.74 88.963h2.147l3.31 8.767a176.086 176.086 0 011.837 5.273h.028c.645-1.977 1.22-3.59 1.838-5.273l3.31-8.767h2.146v22.905H39.01V90.464h-.029a250.127 250.127 0 01-2.286 6.157l-3.03 8.136h-1.234l-3.03-8.136c-.7-1.865-1.374-3.618-2.285-6.157h-.029v21.404h-1.346V88.963zM33.313.341h-.65C14.855.341.418 14.78.418 32.587c0 17.81 14.437 32.246 32.245 32.246h.65c17.81 0 32.246-14.437 32.246-32.245v-.001C65.559 14.779 51.122.341 33.313.341zm0 1.006c17.226 0 31.241 14.014 31.241 31.24 0 17.227-14.015 31.24-31.24 31.24h-.65c-17.226 0-31.24-14.014-31.24-31.24s14.014-31.24 31.24-31.24h.65zm72.452 102.582l-2.202-6.775c-.73-2.286-1.403-4.418-2.189-6.93h-.041c-.786 2.512-1.459 4.644-2.188 6.93l-2.202 6.775h8.822zm.434 1.319h-9.691l-2.146 6.62h-1.543l7.504-22.905h2.061l7.505 22.905h-1.543l-2.147-6.62zM119.94.341H82.763c-7.723 0-13.983 6.26-13.983 13.983v36.527c0 7.722 6.26 13.982 13.983 13.982h37.177c7.722 0 13.982-6.26 13.982-13.982V14.324c0-7.722-6.26-13.983-13.982-13.983zm0 1.006c7.155 0 12.977 5.821 12.977 12.977v36.527c0 7.155-5.822 12.977-12.977 12.977H82.763c-7.156 0-12.977-5.822-12.977-12.977V14.324c0-7.156 5.821-12.977 12.977-12.977h37.177z" fill="#0A0B09"/><path fill-rule="evenodd" clip-rule="evenodd" d="M119.94 68.06H82.763c-7.723 0-13.983 6.26-13.983 13.982v36.526c0 7.723 6.26 13.983 13.983 13.983h37.177c7.722 0 13.982-6.26 13.982-13.983V82.042c0-7.722-6.26-13.983-13.982-13.983zm0 1.005c7.155 0 12.977 5.822 12.977 12.977v36.526c0 7.156-5.822 12.978-12.977 12.978H82.763c-7.156 0-12.977-5.822-12.977-12.978V82.042c0-7.156 5.821-12.977 12.977-12.977h37.177zm24.739 16.045h1.428c.784 0 1.134-.392 1.134-1.218 0-.8-.377-1.064-1.106-1.064h-1.456v2.282zm2.282.63l1.302 2.702h-.993l-1.205-2.59h-1.386v2.59h-.882v-6.385h2.38c1.344 0 2.003.602 2.003 1.835 0 .98-.406 1.609-1.219 1.848zm3.907-.475c0-2.844-2.254-5.112-5.082-5.112a5.077 5.077 0 00-5.112 5.111 5.074 5.074 0 005.112 5.097 5.067 5.067 0 005.082-5.097zm.826 0c0 3.248-2.66 5.92-5.908 5.92-3.277 0-5.938-2.672-5.938-5.92 0-3.264 2.661-5.952 5.938-5.952 3.248 0 5.908 2.688 5.908 5.951z" fill="#0A0B09"/></svg>