<svg width="66" height="65" fill="none" xmlns="http://www.w3.org/2000/svg"><path fill-rule="evenodd" clip-rule="evenodd" d="M41.733 21.245l-7.826 14.349v8.556h-1.46v-8.556l-7.812-14.35h1.627l6.915 12.835 6.916-12.834h1.64z" fill="#0A0B09"/><path fill-rule="evenodd" clip-rule="evenodd" d="M33.313.341h-.65C14.855.341.418 14.78.418 32.587c0 17.81 14.437 32.246 32.245 32.246h.65c17.81 0 32.246-14.437 32.246-32.245v-.001C65.559 14.779 51.122.341 33.313.341zm0 1.006c17.226 0 31.241 14.014 31.241 31.24 0 17.227-14.015 31.24-31.24 31.24h-.65c-17.226 0-31.24-14.014-31.24-31.24s14.014-31.24 31.24-31.24h.65z" fill="#0A0B09"/></svg>